<?xml version="1.0" encoding="utf-8"?>
<!-- Generator: Adobe Illustrator 18.0.0, SVG Export Plug-In . SVG Version: 6.00 Build 0)  -->
<!DOCTYPE svg PUBLIC "-//W3C//DTD SVG 1.1//EN" "http://www.w3.org/Graphics/SVG/1.1/DTD/svg11.dtd">
<svg version="1.1" id="Layer_1" xmlns="http://www.w3.org/2000/svg" xmlns:xlink="http://www.w3.org/1999/xlink" x="0px" y="0px"
	 viewBox="0 0 72 80" enable-background="new 0 0 72 80" xml:space="preserve">
<path fill="#6F6F6E" d="M70.8,44.5h-1.5L68,54.9h-0.1l-2.1-10.4h-1.5l2.7,12.8l-1.1,8.6h1.6L70.8,44.5z M59.4,56.2
	c0-0.5,0.1-0.9,0.3-1.2c0.2-0.3,0.4-0.5,0.7-0.6c0.3-0.1,0.7-0.2,1.2-0.1H62v8.1c0,0.4-0.1,0.8-0.2,1.2c-0.1,0.4-0.3,0.6-0.5,0.8
	c-0.2,0.2-0.5,0.3-0.8,0.3c-0.4,0-0.7-0.1-0.9-0.3c-0.2-0.2-0.3-0.4-0.2-0.7V56.2z M59.4,50.5v-3.7c0-0.3,0.1-0.6,0.3-0.9
	c0.2-0.2,0.6-0.4,1.1-0.4c0.5,0,0.8,0.1,1,0.4c0.2,0.2,0.3,0.5,0.3,0.9V53h-0.7c-0.9,0-1.6,0.1-2.1,0.4c-0.5,0.2-0.9,0.6-1.1,1
	c-0.2,0.4-0.3,1-0.3,1.6v8.1c0,0.5,0.1,0.9,0.3,1.2c0.2,0.3,0.4,0.5,0.7,0.6c0.3,0.1,0.7,0.2,1,0.2c0.4,0,0.7-0.1,1-0.2
	c0.3-0.1,0.5-0.3,0.6-0.5c0.2-0.2,0.3-0.4,0.4-0.6H62v1.1h1.5V46.5c0-0.6-0.1-1-0.4-1.3c-0.2-0.3-0.5-0.5-1-0.7
	c-0.4-0.1-0.9-0.2-1.4-0.2c-0.6,0-1.1,0.1-1.5,0.2c-0.4,0.1-0.8,0.4-1,0.7c-0.2,0.3-0.4,0.7-0.4,1.3v4.1H59.4z M57,44.5h-1.5l-1,20
	h-0.1l-1.7-9.4h-1.9l-1.9,9.4h-0.1l-1-20h-1.5l1.7,21.3h1.9l1.9-9.4h0.1l1.7,9.4h1.9L57,44.5z M39.6,54.2H37V47c0-0.4,0.1-0.8,0.3-1
	c0.2-0.3,0.5-0.4,1-0.4c0.5,0,0.8,0.1,1,0.4c0.2,0.3,0.3,0.6,0.3,1V54.2z M39.6,58.7v4.5c0,0.4-0.1,0.8-0.3,1
	c-0.2,0.3-0.5,0.4-1.1,0.4c-0.5,0-0.8-0.1-1-0.4c-0.2-0.3-0.3-0.6-0.3-1v-7.8h4.1v-8.6c0-0.8-0.2-1.4-0.7-1.9
	c-0.5-0.5-1.2-0.7-2.1-0.7c-0.9,0-1.6,0.2-2.1,0.7c-0.5,0.4-0.7,1.1-0.7,1.9v16.6c0,0.5,0.1,0.9,0.3,1.3c0.2,0.4,0.5,0.7,0.9,0.9
	c0.4,0.2,0.9,0.3,1.5,0.3c0.6,0,1.2-0.1,1.6-0.3c0.4-0.2,0.7-0.5,0.9-0.9c0.2-0.4,0.3-0.8,0.3-1.3v-4.7H39.6z M32.2,65.8h1.5V41.7
	h-1.5V65.8z M25.9,47.5c0-0.3,0.1-0.6,0.2-0.9c0.1-0.3,0.3-0.6,0.5-0.8c0.2-0.2,0.5-0.3,0.8-0.3c0.5,0,0.8,0.1,1,0.4
	c0.2,0.2,0.3,0.6,0.3,1.1v16.2c0,0.5-0.1,0.9-0.3,1.1c-0.2,0.2-0.5,0.4-0.9,0.4c-0.2,0-0.5,0-0.7-0.2c-0.2-0.1-0.4-0.3-0.6-0.5
	c-0.2-0.2-0.2-0.5-0.2-0.8V47.5z M24.4,68.5h1.5V65H26c0.1,0.3,0.4,0.5,0.7,0.7c0.3,0.2,0.7,0.3,1.2,0.3c0.7,0,1.3-0.2,1.7-0.7
	c0.4-0.5,0.6-1.1,0.6-2V46.8c0-0.8-0.2-1.5-0.5-1.9c-0.4-0.4-0.9-0.6-1.7-0.6c-0.5,0-0.9,0.1-1.2,0.3c-0.3,0.2-0.6,0.4-0.8,0.8h-0.1
	v-0.9h-1.5V68.5z M12.4,65.8h1.5V48.1c0-0.6,0.1-1.1,0.2-1.5c0.2-0.4,0.3-0.7,0.6-0.8c0.2-0.2,0.5-0.3,0.7-0.3
	c0.4,0,0.7,0.1,0.9,0.4c0.2,0.2,0.3,0.7,0.3,1.2v18.6h1.5V47.9c0-0.5,0.1-1,0.2-1.3c0.2-0.3,0.3-0.6,0.6-0.8
	c0.2-0.2,0.5-0.3,0.7-0.3c0.4,0,0.7,0.1,0.9,0.4c0.2,0.3,0.3,0.7,0.3,1.4v18.4h1.5v-19c0-0.6-0.1-1.1-0.3-1.5
	c-0.2-0.4-0.4-0.6-0.7-0.8c-0.3-0.2-0.7-0.2-1.2-0.2c-0.4,0-0.7,0.1-1,0.2c-0.3,0.1-0.6,0.3-0.8,0.5c-0.2,0.2-0.3,0.4-0.4,0.6h-0.1
	c0-0.2-0.1-0.5-0.2-0.7c-0.1-0.2-0.3-0.4-0.6-0.5c-0.3-0.1-0.6-0.2-1.1-0.2c-0.3,0-0.6,0.1-0.9,0.2c-0.3,0.1-0.5,0.3-0.7,0.5
	c-0.2,0.2-0.3,0.4-0.4,0.6h-0.1v-1.1h-1.5V65.8z M9,65.8h1.5V44.5H9V65.8z M2.1,58.7v5c0,0.5,0.1,0.9,0.3,1.2
	c0.2,0.3,0.5,0.6,0.9,0.8C3.7,65.9,4.2,66,4.7,66c0.9,0,1.6-0.2,2.1-0.7c0.5-0.4,0.7-1.1,0.7-1.8v-4.2c0-0.5,0-1-0.1-1.5
	c-0.1-0.4-0.3-0.9-0.5-1.3l-1.9-3.1L4.1,52c-0.2-0.4-0.4-0.7-0.5-1.1c-0.1-0.3-0.1-0.7-0.1-1.1V47c0-0.4,0.1-0.8,0.3-1
	c0.2-0.3,0.5-0.4,0.9-0.4c0.4,0,0.7,0.1,0.9,0.4c0.2,0.3,0.3,0.6,0.3,1v3.4h1.5v-3.7c0-0.8-0.2-1.4-0.6-1.8c-0.4-0.4-1.1-0.6-2-0.6
	c-0.6,0-1.1,0.1-1.5,0.3c-0.4,0.2-0.7,0.5-0.9,0.8c-0.2,0.4-0.3,0.8-0.3,1.2v3c0,0.5,0,0.9,0.1,1.3c0.1,0.4,0.2,0.7,0.4,1.1l0.5,0.8
	L5.5,57c0.2,0.4,0.4,0.8,0.4,1.2C6,58.7,6,59.2,6,59.8v3.7c0,0.4-0.1,0.7-0.3,1c-0.2,0.2-0.5,0.3-0.9,0.3c-0.4,0-0.7-0.1-0.9-0.3
	c-0.2-0.2-0.3-0.5-0.3-1v-4.7H2.1z"/>
<path fill-rule="evenodd" clip-rule="evenodd" fill="#EF7D00" d="M27.4,1.3c3,0.5,6.3,3.4,7.5,6.3c0.5,1.2,0.6,2.4,0.7,3.7
	c0.1,5.2,0,10.4,0,15.6c0,1.7,0,3.5,0.1,5.2c0,1.2,0.1,2.5,0.3,3.7c0.6-0.9,1.2-1.9,1.7-2.9c1.3-2.6,2.6-5.3,3.9-7.9
	c1-2.1,2.1-4.2,3.2-6.2c0.7-1.1,1.8-3,2.9-3.7c1.7-1.1,4,2.1,4.3,3.5c0.2,1.1,0.3,2.3,0.2,3.4c-0.1,1.4-0.1,2.7-0.2,4.1
	c-0.1,1.8-0.4,3.6-0.5,5.5c-0.1,1.2-0.1,2.5-0.2,3.7c0,0.1,0,0.2,0,0.2c0.2-0.4,0.5-0.8,0.7-1.3c1-2,2-4,2.9-6.1
	c4.3-9.1,8.9-18,13.8-26.8c0,0,0.1-0.1,0.1-0.2c0.2,0.1,2.6,1.9,2.6,2c0,0-0.1,0.1-0.1,0.1c-5.2,9.2-10,18.6-14.5,28.2
	c-0.8,1.7-1.7,3.4-2.5,5.1c-0.3,0.6-0.7,1.2-1.1,1.7c-1.7,2-4.3-0.6-4.6-2.6c-0.2-1.1-0.2-2.3-0.1-3.4c0.1-1.4,0.2-2.8,0.4-4.3
	c0.1-1.2,0.2-2.5,0.3-3.7c0.1-1.5,0.2-3.1,0.2-4.6c0-0.6-0.1-1.2-0.2-1.8c-0.1,0.2-0.3,0.4-0.5,0.6c-0.8,1-1.4,2.1-2,3.1
	c-1.4,2.5-2.6,5-3.9,7.6c-1.1,2.2-2.2,4.3-3.3,6.5c-0.5,0.9-1,1.8-1.6,2.6c-1.5,1.9-3.7-0.1-4.4-1.8c-0.3-0.7-0.4-1.5-0.5-2.2
	c-0.3-2.1-0.3-4.2-0.3-6.4c0-3.9,0-7.7,0-11.6c0-2.1,0-4.2-0.1-6.3c-0.1-4.8-2.6-6.9-7.5-5.9c-5,1-9.8,2.8-14.2,5.4
	c-1.6,1-3.2,2.1-4.5,3.4c-0.7,0.7-1.4,1.5-1.9,2.4c-0.3,0.5-0.5,1.1-0.6,1.8c0,0.6-0.1,1.4,0.6,1.5c5.3,0.7,13.9-5.8,20.2-4.2
	c2.5,0.6,5.6,3.8,5.9,6.5c1,8.9-20.1,17.5-27.1,18.5c0,0-0.1,0-0.1,0l-1.6-2.6c0.2,0,0.4-0.1,0.6-0.1c6.4-1,25.1-8.8,25.4-16.4
	c0.3-10.7-23.2,8-26.5-2.7c-0.1-0.3-0.1-0.7-0.2-1.1c0,0,0-0.1,0-0.1c0-0.2,0-0.5,0-0.7c0,0,0-0.1,0-0.1c0.1-0.6,0.2-1.1,0.4-1.6
	c0.5-1.1,1.2-2,2-2.9c1.4-1.5,3-2.7,4.7-3.7C12.4,5,16.6,3.2,21.1,2C23,1.5,25.4,1,27.4,1.3"/>
<path fill="#6F6F6E" d="M22.1,78.5h2.4c1.4,0,2.4-0.8,2.4-2.1c0-1.3-0.5-1.8-1.4-2v0c0.8-0.2,1.1-0.8,1.1-1.7c0-1.4-0.9-1.9-2.1-1.9
	h-2.5V78.5z M23.4,77.6v-2.7h1.1c0.7,0,1.2,0.5,1.2,1.3c0,0.9-0.4,1.4-1.1,1.4H23.4z M23.4,74.1v-2.3h0.9c0.7,0,1.2,0.2,1.2,1.1
	c0,0.7-0.4,1.2-1.1,1.2H23.4z"/>
<path fill="#6F6F6E" d="M29.2,74.2v-2.5h1c0.8,0,1.2,0.4,1.2,1.3c0,0.8-0.4,1.3-1.2,1.3H29.2z M27.9,78.5h1.2v-3.3h1
	c0.8,0,1.1,0.4,1.1,1.2c0,0.6,0,1,0.1,1.5c0,0.3,0.1,0.5,0.2,0.7h1.4c-0.2-0.1-0.3-0.3-0.4-0.7c0-0.5,0-1.1,0-1.6
	c0-1.1-0.4-1.5-1.2-1.6v0c0.8-0.1,1.3-0.9,1.3-1.9c0-1.4-0.9-2-2-2h-2.7V78.5z"/>
<path fill="#6F6F6E" d="M33,78.5h1.3l0.5-1.9H37l0.5,1.9h1.3l-2-7.7h-1.6L33,78.5z M35,75.6l0.9-3.8h0l0.9,3.8H35z"/>
<polygon fill="#6F6F6E" points="38.9,78.5 43.5,78.5 43.5,77.5 40.2,77.5 43.4,71.8 43.4,70.8 39.1,70.8 39.1,71.8 42.1,71.8 
	38.9,77.5 "/>
<rect x="44.3" y="70.8" fill="#6F6F6E" width="1.2" height="7.7"/>
<polygon fill="#6F6F6E" points="46.6,78.5 50.8,78.5 50.8,77.5 47.8,77.5 47.8,70.8 46.6,70.8 "/>
</svg>
