<?xml version="1.0" encoding="utf-8"?>
<!-- Generator: Adobe Illustrator 18.0.0, SVG Export Plug-In . SVG Version: 6.00 Build 0)  -->
<!DOCTYPE svg PUBLIC "-//W3C//DTD SVG 1.1//EN" "http://www.w3.org/Graphics/SVG/1.1/DTD/svg11.dtd">
<svg version="1.1" id="Layer_1" xmlns="http://www.w3.org/2000/svg" xmlns:xlink="http://www.w3.org/1999/xlink" x="0px" y="0px"
	 viewBox="0 0 30 30" enable-background="new 0 0 30 30" xml:space="preserve">
<g>
	<g>
		<path d="M7.1,17.8l1.8,0.2c-1.1-0.7-2-1.8-2.5-3c0.9,1.1,2.3,2,3.8,2.4c0.2,0.2,0.3,0.4,0.5,0.6c0-0.1,0.1-0.1,0.1-0.2
			c0.4-0.5,1-0.8,1.6-0.8c0.8,0,1.7,0,2.6,0.2c1.5-0.5,2.8-1.4,3.7-2.6c-0.4,1.1-1,2.1-1.9,2.8c0.2,0,0.4-0.1,0.5-0.2
			c0.5-0.2,1-0.3,1.5-0.4c0.8-1.2,1.3-2.7,1.3-4.3c0-0.6-0.1-1.1-0.2-1.6c-0.1-0.6-0.3-1.1-0.6-1.7c-0.2-0.3-0.3-0.7-0.5-1
			c-0.2-0.3-0.4-0.6-0.7-0.9C16.8,6,14.7,5,12.5,5c-1.6,0-3.1,0.5-4.4,1.4H8c0,0,0,0.1,0,0.1C7.3,6.9,6.7,7.6,6.3,8.2
			C6.2,8.3,6.1,8.5,6,8.6c-0.2,0.3-0.4,0.6-0.5,1c-0.3,0.7-0.5,1.4-0.6,2.1c0,0.3-0.1,0.7-0.1,1c0,2,0.8,3.8,2,5.1
			C6.9,17.8,7,17.8,7.1,17.8z M14.2,16.7c-0.6,0.1-1.2,0.2-1.8,0.2c-0.6,0-1.1-0.1-1.6-0.2c-0.6-0.9-1-2-1.2-3.1
			c0.9,0.3,1.8,0.5,2.8,0.5c1,0,2-0.2,2.9-0.6C15.2,14.7,14.8,15.8,14.2,16.7z M15.4,12.7c-0.9,0.4-1.9,0.7-3,0.7
			c-1,0-2-0.2-2.9-0.6c0-0.1,0-0.1,0-0.2c0-0.9,0.1-1.7,0.4-2.5c0.7,0.5,1.5,0.8,2.5,0.8c1,0,1.9-0.3,2.6-0.8
			c0.3,0.8,0.4,1.7,0.4,2.6C15.4,12.6,15.4,12.6,15.4,12.7z M19,12.3c-0.5,1.7-1.8,3.2-3.5,4c0.5-1,0.8-2,0.8-3.2
			c1-0.6,1.8-1.4,2.4-2.3C18.9,11.2,18.9,11.7,19,12.3z M18.4,9.8c-0.5,0.9-1.2,1.7-2.1,2.3c0-1-0.2-2-0.6-2.9
			c0.4-0.5,0.7-1,0.9-1.7C17.3,8.2,17.9,9,18.4,9.8z M15.9,7.1c-0.1,0.5-0.3,0.9-0.6,1.3c-0.4-0.8-1-1.5-1.6-2.2
			C14.4,6.4,15.2,6.7,15.9,7.1z M12.5,6.4c0.9,0.7,1.7,1.6,2.2,2.7c-0.6,0.5-1.4,0.8-2.2,0.8c-0.8,0-1.5-0.3-2.1-0.7
			C10.8,8.1,11.6,7.1,12.5,6.4z M11.3,6.3c-0.7,0.6-1.3,1.4-1.7,2.3C9.3,8.1,9.1,7.7,9,7.2C9.7,6.7,10.5,6.4,11.3,6.3z M8.2,7.7
			c0.2,0.6,0.6,1.2,1,1.7c-0.3,0.9-0.5,1.8-0.6,2.9c-0.9-0.6-1.6-1.4-2.1-2.3C7,9.1,7.5,8.4,8.2,7.7z M6,12.7c0-0.6,0.1-1.2,0.2-1.7
			c0.6,0.9,1.5,1.7,2.5,2.2c0.1,1.1,0.4,2.2,0.9,3.2C7.9,15.6,6.6,14.3,6,12.7C6,12.7,6,12.7,6,12.7z"/>
		<path d="M24.8,21.6c-1.1-1.4-2.4-2.5-3.9-3.4c-1.2-0.8-2.5-0.6-3.8-0.1c-0.8,0.3-1.5,0.3-2.3,0.1c-1-0.3-2-0.3-3-0.3
			c-0.4,0-0.8,0.1-1,0.5c-0.1,0.2,1,1,2,1c-0.2,0.4-3.4-0.4-3.9-0.4l-2.5-0.3c-0.9-0.1-0.9-0.4-1.7,0.1c0,0-0.1,0-0.1,0
			c-0.5,0-0.7,0.1-1,0.4c-0.2,0.2-0.1,0.4-0.1,0.6C3.8,20,4,19.9,4.2,20c1.1,0.4,1.5,0.6,2.9,1c1.1,0.3,2.1,0.6,3.1,0.8
			c0.4,0.1,0.9,0.2,1.3,0.4c0.8,0.5,1.7,0.6,2.7,0.6c1.1,0,2.2,0,3.3,0c1.9,0,3.4,0.8,4.3,2.4l6.1,0C26.7,23.6,26.1,23.2,24.8,21.6z
			"/>
	</g>
</g>
</svg>
