<?xml version="1.0" encoding="utf-8"?>
<!-- Generator: Adobe Illustrator 16.0.0, SVG Export Plug-In . SVG Version: 6.00 Build 0)  -->
<!DOCTYPE svg PUBLIC "-//W3C//DTD SVG 1.1//EN" "http://www.w3.org/Graphics/SVG/1.1/DTD/svg11.dtd">
<svg version="1.1" id="Layer_1" xmlns="http://www.w3.org/2000/svg" xmlns:xlink="http://www.w3.org/1999/xlink" x="0px" y="0px"
	 width="500px" height="500px" viewBox="0 0 500 500" enable-background="new 0 0 500 500" xml:space="preserve">
<path fill="#FFFFFF" d="M453.474,279.771h-8.9l-8.004,61.997h-0.492l-12.521-61.997h-8.9l16.318,76.163l-6.629,51.062h9.713
	L453.474,279.771z M385.533,349.673c0-3.168,0.496-5.614,1.524-7.305c1.032-1.689,2.514-2.827,4.453-3.459
	c1.937-0.636,4.325-0.93,7.127-0.889h2.472v48.374c0,2.658-0.412,5.021-1.152,7.089c-0.741,2.113-1.815,3.758-3.134,4.979
	c-1.316,1.226-2.882,1.819-4.612,1.861c-2.432,0-4.163-0.549-5.191-1.562c-1.032-1.056-1.527-2.45-1.486-4.265V349.673z
	 M385.533,315.986v-22.283c-0.083-2.068,0.496-3.8,1.648-5.194c1.195-1.392,3.34-2.109,6.512-2.151
	c2.801,0.042,4.736,0.76,5.852,2.151c1.07,1.395,1.606,3.126,1.564,5.194v36.723h-3.954c-5.232,0-9.354,0.714-12.362,2.109
	c-3.006,1.391-5.107,3.418-6.344,6.078c-1.237,2.617-1.857,5.822-1.815,9.539v48.37c0.042,2.912,0.62,5.233,1.731,6.882
	c1.112,1.689,2.598,2.87,4.45,3.546c1.853,0.674,3.912,0.972,6.182,0.972c2.348-0.045,4.324-0.382,5.807-1.059
	c1.527-0.673,2.722-1.604,3.626-2.699c0.907-1.097,1.648-2.28,2.186-3.588h0.494v6.332h8.9V291.677
	c-0.041-3.293-0.699-5.867-2.103-7.724c-1.356-1.902-3.254-3.252-5.686-4.053c-2.473-0.76-5.274-1.184-8.528-1.143
	c-3.418-0.041-6.386,0.383-8.942,1.143c-2.552,0.801-4.533,2.15-5.932,4.053c-1.444,1.856-2.144,4.431-2.186,7.724v24.31H385.533z
	 M370.751,279.771h-8.9l-5.936,119.54h-0.49l-10.137-56.189h-11.372l-11.622,56.189h-0.495l-5.932-119.54h-8.9l9.887,127.138h11.127
	l11.126-56.188h0.492l10.14,56.188h11.122L370.751,279.771z M267.262,337.514h-15.576V294.97c-0.038-2.575,0.578-4.643,1.773-6.204
	c1.236-1.565,3.172-2.366,5.895-2.408c2.802,0.042,4.858,0.843,6.094,2.408c1.236,1.562,1.856,3.629,1.814,6.204V337.514z
	 M267.262,364.613v27.098c0.042,2.578-0.494,4.643-1.648,6.208c-1.152,1.561-3.214,2.362-6.26,2.404
	c-2.927-0.042-4.946-0.844-6.062-2.404c-1.11-1.565-1.645-3.63-1.606-6.208v-46.598h24.476v-51.156
	c0.042-4.729-1.319-8.442-4.037-11.104c-2.719-2.699-7.006-4.049-12.771-4.095c-5.565,0.046-9.728,1.396-12.446,4.095
	c-2.76,2.662-4.122,6.375-4.122,11.104v98.767c0,2.915,0.62,5.489,1.815,7.769c1.236,2.28,3.047,4.096,5.519,5.403
	c2.432,1.308,5.523,1.981,9.233,2.026c3.87-0.045,7.042-0.719,9.516-2.026c2.473-1.308,4.324-3.123,5.521-5.403
	c1.197-2.279,1.771-4.854,1.771-7.769v-28.11H267.262z M223.303,406.908h8.905V263.299h-8.905V406.908z M185.527,298.006
	c0-1.728,0.333-3.501,0.991-5.274c0.62-1.773,1.565-3.293,2.801-4.477c1.278-1.221,2.802-1.855,4.616-1.897
	c2.801,0,4.862,0.802,6.098,2.321c1.236,1.478,1.853,3.588,1.811,6.291v96.488c0,2.914-0.616,5.106-1.811,6.627
	c-1.236,1.479-3.01,2.238-5.357,2.238c-1.361,0-2.719-0.295-4.121-0.931c-1.399-0.631-2.594-1.603-3.542-2.952
	c-0.949-1.31-1.444-2.957-1.486-4.982V298.006z M176.627,422.984h8.9v-20.888h0.495c0.866,1.685,2.227,3.081,4.08,4.136
	c1.856,1.096,4.204,1.645,7.047,1.689c4.367-0.045,7.705-1.479,10.053-4.265c2.348-2.828,3.505-6.711,3.542-11.693v-98.261
	c0-4.938-1.069-8.653-3.213-11.187c-2.14-2.492-5.436-3.759-9.886-3.759c-2.722,0.046-5.111,0.594-7.13,1.732
	c-1.977,1.142-3.501,2.66-4.492,4.6h-0.495v-5.319h-8.9V422.984z M104.983,406.908h8.9V301.553c0.042-3.547,0.496-6.416,1.444-8.655
	c0.904-2.275,2.015-3.923,3.376-4.979c1.361-1.054,2.718-1.561,4.079-1.561c2.598-0.042,4.45,0.677,5.645,2.109
	c1.194,1.437,1.773,3.883,1.773,7.259v111.183h8.9V300.285c0.041-3.123,0.495-5.738,1.44-7.766c0.908-2.068,2.019-3.629,3.38-4.643
	c1.361-1.013,2.718-1.52,4.08-1.52c2.597-0.084,4.45,0.677,5.645,2.28c1.195,1.561,1.773,4.347,1.773,8.354v109.916h8.899V293.703
	c0-3.758-0.537-6.756-1.523-8.948c-1.033-2.197-2.514-3.717-4.454-4.644c-1.936-0.929-4.325-1.395-7.127-1.354
	c-2.223,0.046-4.246,0.465-6.015,1.309c-1.814,0.847-3.297,1.902-4.533,3.21c-1.195,1.266-2.061,2.533-2.556,3.841h-0.495
	c-0.204-1.479-0.7-2.828-1.482-4.094c-0.741-1.268-1.936-2.28-3.542-3.04c-1.606-0.801-3.834-1.18-6.593-1.226
	c-1.894,0.046-3.626,0.465-5.191,1.309c-1.565,0.847-2.927,1.86-4.038,3.039c-1.074,1.184-1.894,2.367-2.389,3.505h-0.496v-6.84
	h-8.9V406.908z M84.76,406.908h8.9V279.771h-8.9V406.908z M43.521,364.613v29.884c0.041,2.869,0.703,5.319,2.019,7.305
	c1.319,1.979,3.175,3.504,5.523,4.555c2.389,1.014,5.107,1.565,8.284,1.565c5.354-0.045,9.433-1.395,12.275-4.053
	c2.843-2.658,4.246-6.291,4.288-10.889v-25.326c0-3.252-0.292-6.204-0.866-8.825c-0.62-2.616-1.648-5.149-3.089-7.637
	l-11.622-18.745l-4.45-7.596c-1.32-2.15-2.265-4.264-2.76-6.332c-0.495-2.068-0.741-4.178-0.703-6.328V294.97
	c-0.038-2.575,0.458-4.643,1.527-6.204c1.07-1.565,2.964-2.366,5.645-2.408c2.556,0.042,4.367,0.843,5.398,2.408
	c1.07,1.562,1.565,3.629,1.524,6.204v20.511h8.899v-22.03c0-4.73-1.278-8.318-3.83-10.852c-2.556-2.532-6.556-3.795-11.992-3.841
	c-3.626,0.046-6.635,0.678-8.983,1.943c-2.389,1.268-4.163,2.957-5.357,5.066c-1.154,2.15-1.732,4.515-1.732,7.175v17.981
	c0,2.954,0.208,5.573,0.703,7.766c0.454,2.238,1.316,4.432,2.515,6.67l2.718,4.812l14.586,24.568
	c1.32,2.234,2.144,4.639,2.514,7.259c0.329,2.575,0.496,5.569,0.454,8.949v21.776c-0.042,2.533-0.699,4.431-2.019,5.701
	c-1.278,1.263-3.009,1.898-5.153,1.898c-2.265,0-4.038-0.636-5.395-1.898c-1.32-1.271-1.981-3.168-2.022-5.701v-28.11H43.521z"/>
<path fill-rule="evenodd" clip-rule="evenodd" fill="#FFFFFF" d="M194.563,22.663c18.174,3.147,37.814,20.179,44.597,37.325
	c2.764,6.994,3.811,14.332,3.977,21.826c0.681,31.096,0.125,62.196,0.136,93.294c0.008,10.314,0.178,20.629,0.458,30.941
	c0.197,7.376,0.632,14.754,1.958,22.024c3.797-5.389,6.992-11.145,9.937-17.026c7.875-15.711,15.617-31.486,23.413-47.236
	c6.136-12.396,12.295-24.78,19.334-36.701c3.947-6.686,10.602-17.684,17.377-21.79c10.419-6.32,24.112,12.484,25.92,21.102
	c1.414,6.764,1.705,13.629,1.445,20.496c-0.314,8.187-0.771,16.374-1.434,24.54c-0.882,10.877-2.141,21.726-3.006,32.605
	c-0.582,7.29-0.873,14.608-1.093,21.92c-0.015,0.513-0.026,1.003-0.033,1.482c1.421-2.159,2.906-4.891,4.34-7.819
	c5.905-12.066,11.838-24.124,17.534-36.292c25.429-54.317,52.892-107.582,82.363-159.806c0.162-0.288,0.332-0.571,0.556-0.953
	c1.081,0.588,15.437,11.186,15.437,11.664c-0.182,0.265-0.39,0.519-0.549,0.798c-31.076,54.97-59.761,111.168-86.419,168.415
	c-4.794,10.29-9.951,20.408-15.047,30.552c-1.804,3.589-3.97,6.99-6.628,10.037c-10.204,11.712-25.512-3.643-27.346-15.624
	c-1.043-6.828-0.907-13.701-0.438-20.551c0.583-8.477,1.342-16.941,2.091-25.404c0.646-7.319,1.444-14.624,2.067-21.945
	c0.783-9.193,1.399-18.403,1.115-27.639c-0.113-3.685-0.332-7.365-1.028-10.979c-0.888,0.917-1.836,2.097-2.873,3.399
	c-4.632,5.845-8.408,12.25-12.041,18.733c-8.261,14.733-15.501,29.989-22.986,45.119c-6.375,12.881-12.84,25.718-19.399,38.508
	c-2.782,5.429-5.901,10.691-9.746,15.461c-9.134,11.338-22.337-0.474-26.446-10.45c-1.765-4.279-2.624-8.79-3.237-13.35
	c-1.704-12.618-2.003-25.322-2.022-38.028c-0.026-23.053,0.15-46.106,0.14-69.156c-0.003-12.526-0.178-25.049-0.347-37.573
	c-0.394-28.833-15.506-41.052-44.912-35.364c-30.083,5.818-58.185,16.842-84.502,32.48c-9.709,5.767-18.862,12.317-26.964,20.243
	c-4.363,4.263-8.303,8.864-11.214,14.272c-1.761,3.276-3.065,6.714-3.285,10.465c-0.219,3.764-0.442,8.584,3.815,9.121
	c31.379,3.949,82.774-34.639,120.31-24.947c14.907,3.849,33.24,22.953,35.001,38.516c6.011,53.062-119.735,104.081-161.425,110.336
	c-0.177,0.026-0.363,0.025-0.669,0.043l-9.281-15.778c1.263-0.207,2.469-0.402,3.675-0.597
	c37.936-6.106,149.943-52.725,151.402-97.607c2.08-63.752-138.426,47.719-157.9-16.23c-0.621-2.04-0.889-4.185-1.323-6.281
	c-0.034-0.176-0.099-0.346-0.152-0.516c0-1.454,0-2.905,0-4.357c0.053-0.203,0.136-0.403,0.155-0.607
	c0.314-3.28,1.21-6.405,2.491-9.423c2.794-6.581,7.036-12.172,11.91-17.309c8.355-8.809,18.019-15.988,28.294-22.349
	c23.282-14.409,48.257-24.866,74.695-31.843C168.522,23.745,182.423,20.561,194.563,22.663"/>
<path fill="#FFFFFF" d="M163.107,482.742h14.537c8.62,0,14.151-4.889,14.151-12.541c0-7.784-3.213-10.805-8.234-11.709v-0.124
	c4.567-1.418,6.756-4.829,6.756-10.424c0-8.105-5.531-11.126-12.352-11.126h-14.858V482.742z M170.442,477.21v-15.886h6.816
	c4.246,0,7.206,2.832,7.206,7.785c0,5.274-2.382,8.101-6.756,8.101H170.442z M170.442,456.179v-13.83h5.146
	c4.117,0,7.395,1.093,7.395,6.564c0,4.305-2.314,7.266-6.752,7.266H170.442z"/>
<path fill="#FFFFFF" d="M204.983,457.271v-14.923h6.238c4.824,0,6.95,2.575,6.95,7.463c0,4.632-2.64,7.46-7.335,7.46H204.983z
	 M197.648,482.742h7.335v-19.939h5.981c5.017,0,6.562,2.188,6.692,7.206c0.129,3.347,0.061,5.916,0.321,8.684
	c0.194,1.8,0.515,3.214,1.222,4.05h8.298c-0.967-0.643-2.06-1.735-2.189-3.985c-0.128-2.768-0.192-6.37-0.257-9.326
	c-0.257-6.435-2.64-8.941-7.203-9.392v-0.128c5.018-0.771,7.653-5.339,7.653-11.26c0-8.616-5.209-11.833-11.641-11.833h-16.212
	V482.742z"/>
<path fill="#FFFFFF" d="M227.814,482.742h7.656l2.959-11.255h13.445l2.827,11.255h7.657l-12.095-45.924h-9.392L227.814,482.742z
	 M239.78,465.634l5.467-22.643h0.129l5.274,22.643H239.78z"/>
<polygon fill="#FFFFFF" points="262.938,482.742 290.403,482.742 290.403,476.567 270.979,476.567 290.211,442.991 290.211,436.818 
	264.095,436.818 264.095,442.991 282.17,442.991 262.938,476.953 "/>
<rect x="295.035" y="436.818" fill="#FFFFFF" width="7.33" height="45.924"/>
<polygon fill="#FFFFFF" points="308.801,482.742 333.886,482.742 333.886,476.567 316.131,476.567 316.131,436.818 308.801,436.818 
	"/>
</svg>
